<mxfile host="drawio-plugin" modified="2022-11-04T11:36:16.563Z" agent="5.0 (Windows NT 6.2; Win64; x64) AppleWebKit/537.36 (KHTML, like Gecko) Chrome/89.0.4389.114 Safari/537.36" etag="zphgJWuaDOLzo15dnCWu" version="15.5.4" type="embed"><diagram id="2MWhljZTr-79RIpY2fLu" name="Bausteinsicht"><mxGraphModel dx="2088" dy="1122" grid="1" gridSize="9" guides="1" tooltips="1" connect="1" arrows="1" fold="1" page="0" pageScale="1" pageWidth="1920" pageHeight="1200" math="0" shadow="0"><root><mxCell id="0"/><mxCell id="1" parent="0"/><mxCell id="7Za7AvAphu47wtOgQL8E-2" value="&lt;p style=&quot;font-weight: normal ; line-height: 18px&quot;&gt;&lt;span style=&quot;background-color: rgb(255 , 255 , 255)&quot;&gt;&lt;font style=&quot;font-size: 16px&quot;&gt;org.hbrs.project.wram&lt;/font&gt;&lt;/span&gt;&lt;/p&gt;" style="shape=folder;fontStyle=1;tabWidth=250;tabHeight=30;tabPosition=left;html=1;boundedLbl=1;labelInHeader=1;container=1;collapsible=0;recursiveResize=0;fillColor=none;" parent="1" vertex="1"><mxGeometry x="-1062" y="-69" width="860" height="879" as="geometry"/></mxCell><mxCell id="7Za7AvAphu47wtOgQL8E-17" value="&lt;b&gt;&lt;font style=&quot;font-size: 14px;&quot;&gt;Infrastructure Layer&lt;/font&gt;&lt;/b&gt;" style="text;html=1;align=center;verticalAlign=middle;resizable=0;points=[];autosize=1;strokeColor=none;fillColor=none;" parent="7Za7AvAphu47wtOgQL8E-2" vertex="1"><mxGeometry y="717" width="153" height="27" as="geometry"/></mxCell><mxCell id="7Za7AvAphu47wtOgQL8E-18" value="&lt;font style=&quot;font-size: 14px;&quot;&gt;&lt;b&gt;Presentation Layer&lt;/b&gt;&lt;/font&gt;" style="text;html=1;align=center;verticalAlign=middle;resizable=0;points=[];autosize=1;strokeColor=none;fillColor=none;" parent="7Za7AvAphu47wtOgQL8E-2" vertex="1"><mxGeometry y="33" width="144" height="27" as="geometry"/></mxCell><mxCell id="7Za7AvAphu47wtOgQL8E-19" value="" style="endArrow=none;html=1;rounded=0;entryX=1;entryY=0.227;entryDx=0;entryDy=0;entryPerimeter=0;" parent="7Za7AvAphu47wtOgQL8E-2" target="7Za7AvAphu47wtOgQL8E-2" edge="1"><mxGeometry width="50" height="50" relative="1" as="geometry"><mxPoint y="210" as="sourcePoint"/><mxPoint x="850" y="210" as="targetPoint"/><Array as="points"><mxPoint x="860" y="210"/></Array></mxGeometry></mxCell><mxCell id="7Za7AvAphu47wtOgQL8E-20" value="&lt;font style=&quot;font-size: 14px;&quot;&gt;&lt;b&gt;Application Layer&lt;/b&gt;&lt;/font&gt;" style="text;html=1;align=center;verticalAlign=middle;resizable=0;points=[];autosize=1;strokeColor=none;fillColor=none;" parent="7Za7AvAphu47wtOgQL8E-2" vertex="1"><mxGeometry y="213" width="135" height="27" as="geometry"/></mxCell><mxCell id="7Za7AvAphu47wtOgQL8E-21" value="" style="endArrow=none;html=1;rounded=0;" parent="7Za7AvAphu47wtOgQL8E-2" edge="1"><mxGeometry width="50" height="50" relative="1" as="geometry"><mxPoint y="717" as="sourcePoint"/><mxPoint x="850" y="717" as="targetPoint"/></mxGeometry></mxCell><mxCell id="7Za7AvAphu47wtOgQL8E-22" value="&lt;b&gt;&lt;font style=&quot;font-size: 14px;&quot;&gt;Domain Layer&lt;/font&gt;&lt;/b&gt;" style="text;html=1;align=center;verticalAlign=middle;resizable=0;points=[];autosize=1;strokeColor=none;fillColor=none;" parent="7Za7AvAphu47wtOgQL8E-2" vertex="1"><mxGeometry y="417" width="117" height="27" as="geometry"/></mxCell><mxCell id="7Za7AvAphu47wtOgQL8E-23" style="edgeStyle=none;html=1;entryX=0.512;entryY=0.101;entryDx=0;entryDy=0;entryPerimeter=0;dashed=1;endArrow=open;endFill=0;endSize=10;" parent="7Za7AvAphu47wtOgQL8E-2" source="7Za7AvAphu47wtOgQL8E-41" target="7Za7AvAphu47wtOgQL8E-27" edge="1"><mxGeometry relative="1" as="geometry"/></mxCell><mxCell id="7Za7AvAphu47wtOgQL8E-24" style="rounded=0;orthogonalLoop=1;jettySize=auto;html=1;dashed=1;endArrow=open;endFill=0;entryX=0.593;entryY=0.166;entryDx=0;entryDy=0;entryPerimeter=0;endSize=10;" parent="7Za7AvAphu47wtOgQL8E-2" target="7Za7AvAphu47wtOgQL8E-41" edge="1"><mxGeometry relative="1" as="geometry"><mxPoint x="422.21328671328683" y="189" as="sourcePoint"/></mxGeometry></mxCell><mxCell id="7Za7AvAphu47wtOgQL8E-25" value="" style="endArrow=none;html=1;rounded=0;entryX=1;entryY=0.454;entryDx=0;entryDy=0;entryPerimeter=0;" parent="7Za7AvAphu47wtOgQL8E-2" target="7Za7AvAphu47wtOgQL8E-2" edge="1"><mxGeometry width="50" height="50" relative="1" as="geometry"><mxPoint y="420" as="sourcePoint"/><mxPoint x="850" y="420" as="targetPoint"/><Array as="points"><mxPoint x="860" y="420"/></Array></mxGeometry></mxCell><mxCell id="7Za7AvAphu47wtOgQL8E-26" style="edgeStyle=orthogonalEdgeStyle;rounded=0;orthogonalLoop=1;jettySize=auto;html=1;dashed=1;endArrow=open;endFill=0;entryX=0.499;entryY=0.246;entryDx=0;entryDy=0;entryPerimeter=0;endSize=11;" parent="7Za7AvAphu47wtOgQL8E-2" source="7Za7AvAphu47wtOgQL8E-27" target="7Za7AvAphu47wtOgQL8E-54" edge="1"><mxGeometry relative="1" as="geometry"><mxPoint x="325" y="810" as="targetPoint"/></mxGeometry></mxCell><mxCell id="ogW2aX8y5DBVJp2eBAxj-18" style="edgeStyle=orthogonalEdgeStyle;rounded=0;orthogonalLoop=1;jettySize=auto;html=1;entryX=0;entryY=0;entryDx=242;entryDy=81;entryPerimeter=0;dashed=1;fontSize=14;endArrow=open;endFill=0;endSize=8;" parent="7Za7AvAphu47wtOgQL8E-2" source="7Za7AvAphu47wtOgQL8E-41" target="7Za7AvAphu47wtOgQL8E-54" edge="1"><mxGeometry relative="1" as="geometry"><Array as="points"><mxPoint x="738" y="329"/><mxPoint x="738" y="834"/></Array></mxGeometry></mxCell><mxCell id="7Za7AvAphu47wtOgQL8E-41" value="control" style="shape=folder;fontStyle=1;tabWidth=128;tabHeight=27;tabPosition=left;html=1;boundedLbl=1;labelInHeader=1;container=1;collapsible=0;recursiveResize=0;" parent="7Za7AvAphu47wtOgQL8E-2" vertex="1"><mxGeometry x="70" y="249" width="596" height="160" as="geometry"/></mxCell><mxCell id="ogW2aX8y5DBVJp2eBAxj-8" value="&lt;span style=&quot;font-weight: 400&quot;&gt;entwickler&lt;/span&gt;" style="shape=folder;fontStyle=1;spacingTop=10;tabWidth=40;tabHeight=14;tabPosition=left;html=1;" parent="7Za7AvAphu47wtOgQL8E-41" vertex="1"><mxGeometry x="443" y="108" width="95" height="40" as="geometry"/></mxCell><mxCell id="ogW2aX8y5DBVJp2eBAxj-9" value="&lt;span style=&quot;font-weight: 400&quot;&gt;factory&lt;/span&gt;" style="shape=folder;fontStyle=1;spacingTop=10;tabWidth=40;tabHeight=14;tabPosition=left;html=1;" parent="7Za7AvAphu47wtOgQL8E-41" vertex="1"><mxGeometry x="308" y="54" width="95" height="40" as="geometry"/></mxCell><mxCell id="ogW2aX8y5DBVJp2eBAxj-10" value="&lt;span style=&quot;font-weight: 400&quot;&gt;manager&lt;/span&gt;" style="shape=folder;fontStyle=1;spacingTop=10;tabWidth=40;tabHeight=14;tabPosition=left;html=1;" parent="7Za7AvAphu47wtOgQL8E-41" vertex="1"><mxGeometry x="443" y="54" width="95" height="40" as="geometry"/></mxCell><mxCell id="ogW2aX8y5DBVJp2eBAxj-11" value="&lt;span style=&quot;font-weight: 400&quot;&gt;reviewer&lt;/span&gt;" style="shape=folder;fontStyle=1;spacingTop=10;tabWidth=40;tabHeight=14;tabPosition=left;html=1;" parent="7Za7AvAphu47wtOgQL8E-41" vertex="1"><mxGeometry x="308" y="108" width="95" height="40" as="geometry"/></mxCell><mxCell id="2" value="user" style="shape=folder;fontStyle=1;tabWidth=110;tabHeight=30;tabPosition=left;html=1;boundedLbl=1;labelInHeader=1;container=1;collapsible=0;recursiveResize=0;" vertex="1" parent="7Za7AvAphu47wtOgQL8E-41"><mxGeometry x="27" y="36" width="243" height="100" as="geometry"/></mxCell><mxCell id="3" value="UserMapper" style="html=1;" vertex="1" parent="2"><mxGeometry width="81" height="30" relative="1" as="geometry"><mxPoint x="20" y="50" as="offset"/></mxGeometry></mxCell><mxCell id="4" value="UserService" style="html=1;" vertex="1" parent="2"><mxGeometry x="119" y="54" width="81" height="30" as="geometry"/></mxCell><mxCell id="7Za7AvAphu47wtOgQL8E-54" value="util" style="shape=folder;fontStyle=1;tabWidth=89;tabHeight=24;tabPosition=left;html=1;boundedLbl=1;labelInHeader=1;container=1;collapsible=0;recursiveResize=0;" parent="7Za7AvAphu47wtOgQL8E-2" vertex="1"><mxGeometry x="244" y="753" width="242" height="100" as="geometry"/></mxCell><mxCell id="7Za7AvAphu47wtOgQL8E-55" value="Constants" style="html=1;" parent="7Za7AvAphu47wtOgQL8E-54" vertex="1"><mxGeometry x="10" y="40" width="70" height="30" as="geometry"/></mxCell><mxCell id="7Za7AvAphu47wtOgQL8E-56" value="Encryption" style="html=1;" parent="7Za7AvAphu47wtOgQL8E-54" vertex="1"><mxGeometry x="100" y="40" width="70" height="30" as="geometry"/></mxCell><mxCell id="ogW2aX8y5DBVJp2eBAxj-17" style="edgeStyle=orthogonalEdgeStyle;rounded=0;orthogonalLoop=1;jettySize=auto;html=1;fontSize=14;endSize=8;dashed=1;endArrow=open;endFill=0;" parent="7Za7AvAphu47wtOgQL8E-2" source="ogW2aX8y5DBVJp2eBAxj-1" target="7Za7AvAphu47wtOgQL8E-54" edge="1"><mxGeometry relative="1" as="geometry"><Array as="points"><mxPoint x="792" y="124"/><mxPoint x="792" y="803"/></Array></mxGeometry></mxCell><mxCell id="ogW2aX8y5DBVJp2eBAxj-1" value="view" style="shape=folder;fontStyle=1;tabWidth=140;tabHeight=27;tabPosition=left;html=1;boundedLbl=1;labelInHeader=1;container=1;collapsible=0;recursiveResize=0;" parent="7Za7AvAphu47wtOgQL8E-2" vertex="1"><mxGeometry x="117" y="60" width="576" height="129" as="geometry"/></mxCell><mxCell id="ogW2aX8y5DBVJp2eBAxj-2" value="LoginView" style="html=1;" parent="ogW2aX8y5DBVJp2eBAxj-1" vertex="1"><mxGeometry x="68" y="54" width="94" height="54" as="geometry"/></mxCell><mxCell id="ogW2aX8y5DBVJp2eBAxj-3" value="AppView" style="html=1;" parent="ogW2aX8y5DBVJp2eBAxj-1" vertex="1"><mxGeometry x="189" y="54" width="102" height="54" as="geometry"/></mxCell><mxCell id="ogW2aX8y5DBVJp2eBAxj-15" value="RegistrationForm" style="html=1;" parent="ogW2aX8y5DBVJp2eBAxj-1" vertex="1"><mxGeometry x="315" y="54" width="102" height="54" as="geometry"/></mxCell><mxCell id="ogW2aX8y5DBVJp2eBAxj-16" value="ProjectsOverview" style="html=1;" parent="ogW2aX8y5DBVJp2eBAxj-1" vertex="1"><mxGeometry x="441" y="54" width="102" height="54" as="geometry"/></mxCell><mxCell id="7Za7AvAphu47wtOgQL8E-27" value="model" style="shape=folder;fontStyle=1;tabWidth=122;tabHeight=27;tabPosition=left;html=1;boundedLbl=1;labelInHeader=1;container=1;collapsible=0;recursiveResize=0;fillColor=none;strokeColor=default;" parent="7Za7AvAphu47wtOgQL8E-2" vertex="1"><mxGeometry x="70" y="456" width="590" height="240" as="geometry"/></mxCell><mxCell id="7Za7AvAphu47wtOgQL8E-31" value="&lt;span style=&quot;font-weight: normal&quot;&gt;entwickler&lt;/span&gt;" style="shape=folder;fontStyle=1;spacingTop=10;tabWidth=40;tabHeight=14;tabPosition=left;html=1;" parent="7Za7AvAphu47wtOgQL8E-27" vertex="1"><mxGeometry x="27.5" y="150" width="95" height="40" as="geometry"/></mxCell><mxCell id="7Za7AvAphu47wtOgQL8E-32" value="&lt;span style=&quot;font-weight: normal&quot;&gt;reviewer&lt;/span&gt;" style="shape=folder;fontStyle=1;spacingTop=10;tabWidth=40;tabHeight=14;tabPosition=left;html=1;" parent="7Za7AvAphu47wtOgQL8E-27" vertex="1"><mxGeometry x="455" y="81" width="95" height="40" as="geometry"/></mxCell><mxCell id="7Za7AvAphu47wtOgQL8E-33" value="&lt;span style=&quot;font-weight: normal&quot;&gt;common&lt;/span&gt;" style="shape=folder;fontStyle=1;spacingTop=10;tabWidth=40;tabHeight=14;tabPosition=left;html=1;" parent="7Za7AvAphu47wtOgQL8E-27" vertex="1"><mxGeometry x="27.5" y="65" width="95" height="40" as="geometry"/></mxCell><mxCell id="7Za7AvAphu47wtOgQL8E-35" value="&lt;span style=&quot;font-weight: 400&quot;&gt;anfrage&lt;/span&gt;" style="shape=folder;fontStyle=1;spacingTop=10;tabWidth=34;tabHeight=16;tabPosition=left;html=1;" parent="7Za7AvAphu47wtOgQL8E-27" vertex="1"><mxGeometry x="160" y="150" width="95" height="40" as="geometry"/></mxCell><mxCell id="7Za7AvAphu47wtOgQL8E-36" value="&lt;span style=&quot;font-weight: 400&quot;&gt;manager&lt;/span&gt;" style="shape=folder;fontStyle=1;spacingTop=10;tabWidth=40;tabHeight=14;tabPosition=left;html=1;" parent="7Za7AvAphu47wtOgQL8E-27" vertex="1"><mxGeometry x="310" y="150" width="95" height="40" as="geometry"/></mxCell><mxCell id="7Za7AvAphu47wtOgQL8E-37" value="&lt;span style=&quot;font-weight: 400&quot;&gt;kundenprojekt&lt;/span&gt;" style="shape=folder;fontStyle=1;spacingTop=10;tabWidth=40;tabHeight=14;tabPosition=left;html=1;" parent="7Za7AvAphu47wtOgQL8E-27" vertex="1"><mxGeometry x="455" y="153" width="95" height="40" as="geometry"/></mxCell><mxCell id="5" value="user" style="shape=folder;fontStyle=1;tabWidth=83;tabHeight=18;tabPosition=left;html=1;boundedLbl=1;labelInHeader=1;container=1;collapsible=0;recursiveResize=0;" vertex="1" parent="7Za7AvAphu47wtOgQL8E-27"><mxGeometry x="162" y="54" width="236" height="81" as="geometry"/></mxCell><mxCell id="6" value="User" style="html=1;" vertex="1" parent="5"><mxGeometry width="81" height="30" relative="1" as="geometry"><mxPoint x="11" y="36" as="offset"/></mxGeometry></mxCell><mxCell id="7" value="UserRepository" style="html=1;" vertex="1" parent="5"><mxGeometry x="108" y="36" width="92" height="30" as="geometry"/></mxCell><mxCell id="7Za7AvAphu47wtOgQL8E-59" value="&lt;span style=&quot;color: rgba(0 , 0 , 0 , 0) ; font-family: monospace ; font-size: 0px ; background-color: rgb(248 , 249 , 250)&quot;&gt;%3CmxGraphModel%3E%3Croot%3E%3CmxCell%20id%3D%220%22%2F%3E%3CmxCell%20id%3D%221%22%20parent%3D%220%22%2F%3E%3CmxCell%20id%3D%222%22%20value%3D%22permission%22%20style%3D%22shape%3Dfolder%3BfontStyle%3D1%3BtabWidth%3D110%3BtabHeight%3D30%3BtabPosition%3Dleft%3Bhtml%3D1%3BboundedLbl%3D1%3BlabelInHeader%3D1%3Bcontainer%3D1%3Bcollapsible%3D0%3BrecursiveResize%3D0%3B%22%20vertex%3D%221%22%20parent%3D%221%22%3E%3CmxGeometry%20x%3D%2240%22%20y%3D%22340%22%20width%3D%22150%22%20height%3D%22100%22%20as%3D%22geometry%22%2F%3E%3C%2FmxCell%3E%3CmxCell%20id%3D%223%22%20value%3D%22dto%22%20style%3D%22html%3D1%3B%22%20vertex%3D%221%22%20parent%3D%222%22%3E%3CmxGeometry%20width%3D%22110%22%20height%3D%2230%22%20relative%3D%221%22%20as%3D%22geometry%22%3E%3CmxPoint%20x%3D%2220%22%20y%3D%2250%22%20as%3D%22offset%22%2F%3E%3C%2FmxGeometry%3E%3C%2FmxCell%3E%3C%2Froot%3E%3C%2FmxGraphModel%3E&lt;/span&gt;" style="text;html=1;align=center;verticalAlign=middle;resizable=0;points=[];autosize=1;strokeColor=none;fillColor=none;" parent="1" vertex="1"><mxGeometry x="-742" y="-99" width="20" height="20" as="geometry"/></mxCell></root></mxGraphModel></diagram></mxfile>